<svg xmlns="http://www.w3.org/2000/svg" width="330" height="406" fill="none"><g clip-path="url(#a)"><path fill="#E0E2FA" d="M322.764 0H7.014A7.014 7.014 0 0 0 0 7.014v391.98a7.013 7.013 0 0 0 7.014 7.013h315.75a7.013 7.013 0 0 0 7.014-7.013V7.014A7.014 7.014 0 0 0 322.764 0"/><path fill="#9192A7" d="m148.686 106.723-63.041 18.486a8.397 8.397 0 0 0-5.695 10.421l20.731 70.699c1.305 4.45 5.97 7 10.42 5.695l63.042-18.486a8.4 8.4 0 0 0 5.695-10.421l-20.731-70.699a8.4 8.4 0 0 0-10.421-5.695"/><path fill="url(#b)" stroke="#fff" stroke-linecap="round" stroke-linejoin="round" stroke-width="5.398" d="m238.121 93.938-94.667-27.72a4.595 4.595 0 0 0-5.702 3.12L107.747 171.81a4.596 4.596 0 0 0 3.12 5.702l94.666 27.72a4.597 4.597 0 0 0 5.703-3.12l30.004-102.47a4.596 4.596 0 0 0-3.119-5.703"/><path fill="#C1C0D4" stroke="#fff" stroke-linecap="round" stroke-linejoin="round" stroke-width="2.257" d="M228.895 102.237 147.52 78.41l-21.833 74.563 81.375 23.828z"/><path fill="#fff" stroke="#fff" stroke-linecap="round" stroke-linejoin="round" stroke-width="2.257" d="M228.895 102.237 147.52 78.41l-10.189 34.796 81.375 23.828z"/><path fill="#C1C0D4" fill-rule="evenodd" d="m142.302 114.662 8.971-7.005 12.221-4.546 1.73 3.848 4.133-5.75 1.503-.096 3.575-4.028 21.092 38.559" clip-rule="evenodd"/><path stroke="#fff" stroke-linecap="round" stroke-linejoin="round" stroke-width="2.257" d="m142.302 114.662 8.971-7.005 12.221-4.546 1.73 3.848 4.133-5.75 1.503-.096 3.575-4.028 21.092 38.559"/><path fill="#9294AC" fill-rule="evenodd" stroke="#fff" stroke-linecap="round" stroke-linejoin="round" stroke-width="2.257" d="M174.435 97.085a153 153 0 0 1-1.419 15.394l-3.309-2.257-6.213-7.112-1.37 7.951-1.471 4.029.192 5.521 12.697 1.603 14.954.577-4.163-15.15-2.332 2.004-3.421-4.982z" clip-rule="evenodd"/><path fill="#C1C0D4" fill-rule="evenodd" d="m160.731 125.455 17.181-8.359 3.536-.707 6.063-6.174 5.352-2.337 21.092 38.559" clip-rule="evenodd"/><path stroke="#fff" stroke-linecap="round" stroke-linejoin="round" stroke-width="2.257" d="m160.731 125.455 17.181-8.359 3.536-.707 6.063-6.174 5.352-2.337 21.092 38.559"/><path fill="#9294AC" fill-rule="evenodd" stroke="#fff" stroke-linecap="round" stroke-linejoin="round" stroke-width="2.257" d="m192.863 107.878 2.029 15.151-1.461 4.989-1.461 4.989 2.777 4.315a14.1 14.1 0 0 1 4.481-1.513c2.796-.441 5.647-.03 8.477.032 1.149.025 2.326-.013 3.4-.421q.411-.157.79-.381l-4.971-1.455-4.747-8.685-2.573-9.555-2.128.967z" clip-rule="evenodd"/><path fill="#fff" fill-rule="evenodd" d="M150.542 160.251c.397-1.611-.607-3.345 4.325-4.25 6.052-1.111 22.602.161 28.122-2.558 4.084-2.011-9.84-9.658-6.25-12.457 1.627-1.27 10.751-.445 15.08-1.031 4.104-.556 3.47-2.547 6.658-3.443 3.08-.866 12.285.04 13.418-1.473-2.236 1.238-12.395.041-16.368.605-4.193.594-4.524 2.26-9.621 2.487-5.491.244-15.768-.92-18.499.073-5.721 2.079 5.698 9.332-.227 10.728-8.023 1.89-26.846-.072-35.066.526-5.681.414-5.569 1.563-6.427 3.516" clip-rule="evenodd"/><path stroke="#fff" stroke-linecap="round" stroke-linejoin="round" stroke-width="2.257" d="M150.542 160.251c.397-1.611-.607-3.345 4.325-4.25 6.052-1.111 22.602.161 28.122-2.558 4.084-2.011-9.84-9.658-6.25-12.457 1.627-1.27 10.751-.445 15.08-1.031 4.104-.556 3.47-2.547 6.658-3.443 3.08-.866 12.285.04 13.418-1.473-2.236 1.238-12.395.041-16.368.605-4.193.594-4.524 2.26-9.621 2.487-5.491.244-15.768-.92-18.499.073-5.721 2.079 5.698 9.332-.227 10.728-8.023 1.89-26.846-.072-35.066.526-5.681.414-5.569 1.563-6.427 3.516"/><path fill="#767676" d="M103.861 265.062v23.273h-4.25l-10.125-14.648h-.17v14.648h-4.92v-23.273h4.317l10.046 14.636h.204v-14.636zm25.452 11.636q0 3.807-1.443 6.478-1.433 2.67-3.909 4.079-2.466 1.398-5.546 1.398-3.102 0-5.568-1.409t-3.898-4.08q-1.431-2.67-1.432-6.466 0-3.806 1.432-6.477 1.432-2.67 3.898-4.068 2.466-1.409 5.568-1.409 3.08 0 5.546 1.409 2.477 1.398 3.909 4.068 1.443 2.67 1.443 6.477m-4.989 0q0-2.466-.738-4.159-.728-1.693-2.057-2.568-1.33-.875-3.114-.875t-3.114.875q-1.329.875-2.068 2.568-.727 1.693-.727 4.159t.727 4.16q.74 1.692 2.068 2.568 1.33.875 3.114.875t3.114-.875 2.057-2.568q.738-1.694.738-4.16m20.96-11.636v23.273h-4.92v-23.273zm4.049 0h6.068l6.409 15.636h.273l6.409-15.636h6.068v23.273h-4.773v-15.148h-.193l-6.023 15.034h-3.25l-6.022-15.091h-.194v15.205h-4.772zm33.292 23.273h-5.272l8.034-23.273h6.341l8.022 23.273h-5.272l-5.83-17.955h-.182zm-.329-9.148h12.454v3.841h-12.454zm34.593-6.602a5.1 5.1 0 0 0-.67-1.466 4.1 4.1 0 0 0-1.057-1.091 4.5 4.5 0 0 0-1.409-.693 6 6 0 0 0-1.739-.239q-1.783 0-3.136.887-1.341.885-2.091 2.579-.75 1.681-.75 4.114t.739 4.136q.738 1.705 2.091 2.602 1.352.887 3.193.887 1.67 0 2.852-.591 1.194-.603 1.818-1.693.637-1.092.637-2.58l1 .148h-6v-3.705h9.738v2.932q0 3.068-1.295 5.273a8.83 8.83 0 0 1-3.568 3.386q-2.272 1.182-5.205 1.182-3.273 0-5.75-1.443-2.477-1.455-3.863-4.125-1.375-2.682-1.375-6.364 0-2.83.818-5.045.83-2.228 2.318-3.773a10 10 0 0 1 3.466-2.352q1.977-.807 4.284-.807 1.977 0 3.682.579a9.8 9.8 0 0 1 3.022 1.614 8.7 8.7 0 0 1 2.171 2.489 8.4 8.4 0 0 1 1.079 3.159zm8.912 15.75v-23.273h15.682v4.057h-10.761v5.545h9.954v4.057h-9.954v5.557h10.807v4.057zM80.719 328.335h-5.273l8.034-23.273h6.341l8.023 23.273h-5.273l-5.83-17.955h-.181zm-.33-9.148h12.455v3.841H80.39zm21.554-14.125 5.625 17.682h.216l5.637-17.682h5.454l-8.022 23.273h-6.341l-8.034-23.273zm20.651 23.273h-5.273l8.034-23.273h6.341l8.023 23.273h-5.273l-5.829-17.955h-.182zm-.33-9.148h12.455v3.841h-12.455zm25.177-14.125v23.273h-4.921v-23.273zm4.048 23.273v-23.273h4.92v19.216h9.978v4.057zm22.761 0h-5.272l8.034-23.273h6.341l8.022 23.273h-5.272l-5.83-17.955h-.182zm-.329-9.148h12.454v3.841h-12.454zm20.255 9.148v-23.273h9.319q2.568 0 4.284.761 1.716.762 2.579 2.114.864 1.34.864 3.091 0 1.363-.546 2.398a4.7 4.7 0 0 1-1.5 1.682 6.2 6.2 0 0 1-2.159.92v.227a5.2 5.2 0 0 1 2.489.75q1.17.693 1.898 1.943.727 1.239.727 2.955 0 1.852-.92 3.307-.91 1.443-2.694 2.284t-4.397.841zm4.921-4.023h4.011q2.057 0 3-.784.943-.795.943-2.114 0-.966-.465-1.704-.466-.74-1.33-1.159-.852-.421-2.034-.421h-4.125zm0-9.511h3.648q1.01 0 1.795-.353.795-.363 1.25-1.022.466-.66.466-1.58 0-1.262-.898-2.034-.887-.773-2.522-.773h-3.739zm16.236 13.534v-23.273h4.92v19.216h9.977v4.057zm18.156 0v-23.273h15.682v4.057h-10.762v5.545h9.955v4.057h-9.955v5.557h10.807v4.057z"/></g><defs><linearGradient id="b" x1="202.454" x2="172.197" y1="89.02" y2="186.628" gradientUnits="userSpaceOnUse"><stop stop-color="#BAB8C9"/><stop offset="1" stop-color="#9596A8"/></linearGradient><clipPath id="a"><path fill="#fff" d="M0 0h329.778v406.007H0z"/></clipPath></defs></svg>