<svg width="20" height="20" viewBox="0 0 20 20" fill="none" xmlns="http://www.w3.org/2000/svg">
<path d="M3.33341 9.58333L2.92925 9.68417C2.56868 9.77429 2.24859 9.98235 2.01984 10.2753C1.79108 10.5682 1.6668 10.9292 1.66675 11.3008V12.865C1.6668 13.2367 1.79108 13.5976 2.01984 13.8906C2.24859 14.1835 2.56868 14.3915 2.92925 14.4817L4.37925 14.8442C4.45293 14.8625 4.52982 14.8638 4.60409 14.848C4.67836 14.8323 4.74806 14.7998 4.80789 14.753C4.86773 14.7063 4.91613 14.6465 4.94943 14.5783C4.98273 14.51 5.00005 14.4351 5.00008 14.3592V9.80667C5.00009 9.73065 4.98276 9.65562 4.94941 9.58731C4.91606 9.51899 4.86757 9.45918 4.80764 9.41242C4.7477 9.36566 4.67789 9.33318 4.60351 9.31745C4.52913 9.30173 4.45215 9.30317 4.37841 9.32167L3.33341 9.58333ZM3.33341 9.58333V9.16667C3.33341 7.39856 4.03579 5.70286 5.28604 4.45262C6.53628 3.20238 8.23197 2.5 10.0001 2.5C11.7682 2.5 13.4639 3.20238 14.7141 4.45262C15.9644 5.70286 16.6667 7.39856 16.6667 9.16667V9.58333M16.6667 9.58333L17.0709 9.68417C17.4315 9.77429 17.7516 9.98235 17.9803 10.2753C18.2091 10.5682 18.3334 10.9292 18.3334 11.3008V12.865C18.3334 13.2367 18.2091 13.5976 17.9803 13.8906C17.7516 14.1835 17.4315 14.3915 17.0709 14.4817L16.6667 14.5833M16.6667 9.58333L15.6209 9.32167C15.5472 9.30332 15.4703 9.30199 15.3961 9.31778C15.3218 9.33358 15.2521 9.36608 15.1923 9.41283C15.1324 9.45957 15.084 9.51933 15.0507 9.58757C15.0174 9.65581 15.0001 9.73074 15.0001 9.80667V14.3592C15.0001 14.4351 15.0174 14.51 15.0507 14.5783C15.084 14.6465 15.1324 14.7063 15.1923 14.753C15.2521 14.7998 15.3218 14.8323 15.3961 14.848C15.4703 14.8638 15.5472 14.8625 15.6209 14.8442L16.6667 14.5833M16.6667 14.5833V15.4167C16.6667 15.8587 16.4912 16.2826 16.1786 16.5952C15.866 16.9077 15.4421 17.0833 15.0001 17.0833H12.5001M12.5001 17.0833C12.5001 16.7518 12.3684 16.4339 12.134 16.1995C11.8995 15.965 11.5816 15.8333 11.2501 15.8333H8.75008C8.41856 15.8333 8.10062 15.965 7.8662 16.1995C7.63178 16.4339 7.50008 16.7518 7.50008 17.0833C7.50008 17.4149 7.63178 17.7328 7.8662 17.9672C8.10062 18.2016 8.41856 18.3333 8.75008 18.3333H11.2501C11.5816 18.3333 11.8995 18.2016 12.134 17.9672C12.3684 17.7328 12.5001 17.4149 12.5001 17.0833Z" stroke="#404040" stroke-opacity="0.9" stroke-width="1.5"/>
</svg>
