<svg width="20" height="21" viewBox="0 0 20 21" fill="none" xmlns="http://www.w3.org/2000/svg">
<path d="M4.55839 7.99984C6.16922 7.99984 7.47506 6.694 7.47506 5.08317C7.47506 3.47234 6.16922 2.1665 4.55839 2.1665C2.94756 2.1665 1.64172 3.47234 1.64172 5.08317C1.64172 6.694 2.94756 7.99984 4.55839 7.99984Z" stroke="#404040" stroke-width="1.5"/>
<path d="M14.1416 13H16.6416C17.5583 13 18.3083 13.75 18.3083 14.6667V17.1667C18.3083 18.0833 17.5583 18.8333 16.6416 18.8333H14.1416C13.225 18.8333 12.475 18.0833 12.475 17.1667V14.6667C12.475 13.75 13.225 13 14.1416 13Z" stroke="#404040" stroke-width="1.5"/>
<path d="M10 4.6665H12.2334C13.775 4.6665 14.4917 6.57484 13.3334 7.5915L6.67504 13.4165C5.5167 14.4248 6.23337 16.3332 7.7667 16.3332H10" stroke="#404040" stroke-width="1.5" stroke-linecap="round" stroke-linejoin="round"/>
<path d="M4.57185 5.08317H4.58148" stroke="#404040" stroke-width="2" stroke-linecap="round" stroke-linejoin="round"/>
<path d="M15.4052 15.9167H15.4148" stroke="#404040" stroke-width="2" stroke-linecap="round" stroke-linejoin="round"/>
</svg>
