<svg width="12" height="11" viewBox="0 0 12 11" fill="none" xmlns="http://www.w3.org/2000/svg">
<path d="M5.52229 1.04591C5.66748 0.576067 6.33252 0.576067 6.47771 1.04591L7.30752 3.73121C7.37226 3.94072 7.56595 4.08359 7.78523 4.08359H10.5219C11.0001 4.08359 11.2054 4.69058 10.8254 4.98092L8.56895 6.70468C8.40243 6.83189 8.3329 7.04943 8.39477 7.24963L9.24635 10.0054C9.39008 10.4705 8.85195 10.8459 8.46511 10.5504L6.30353 8.89906C6.12433 8.76217 5.87567 8.76217 5.69647 8.89906L3.53489 10.5504C3.14805 10.8459 2.60992 10.4705 2.75365 10.0054L3.60523 7.24963C3.6671 7.04943 3.59757 6.83189 3.43105 6.70468L1.17462 4.98092C0.794561 4.69058 0.999881 4.08359 1.47815 4.08359H4.21477C4.43405 4.08359 4.62774 3.94072 4.69248 3.73121L5.52229 1.04591Z" fill="#F7B200"/>
</svg>
