<svg width="18" height="18" viewBox="0 0 18 18" fill="none" xmlns="http://www.w3.org/2000/svg">
<path d="M8.42548 1.03271H5.24957C2.63765 1.03271 1 2.87855 1 5.49171V12.541C1 15.1542 2.63 17 5.24957 17H12.7447C15.3651 17 16.9951 15.1542 16.9951 12.541V9.12573" stroke="#757575" stroke-width="1.5" stroke-linecap="round" stroke-linejoin="round"/>
<path fill-rule="evenodd" clip-rule="evenodd" d="M6.16231 7.9276L12.5099 1.5914C13.3007 0.802868 14.5824 0.802868 15.3732 1.5914L16.407 2.62327C17.1978 3.41264 17.1978 4.69294 16.407 5.48147L10.0288 11.8482C9.68308 12.1933 9.21421 12.3874 8.72496 12.3874H5.54309L5.62293 9.18246C5.63483 8.71104 5.82764 8.26167 6.16231 7.9276Z" stroke="#757575" stroke-width="1.5" stroke-linecap="round" stroke-linejoin="round"/>
<path d="M11.5453 2.57031L15.4237 6.44173" stroke="#757575" stroke-width="1.5" stroke-linecap="round" stroke-linejoin="round"/>
</svg>
