<svg width="25" height="24" viewBox="0 0 25 24" fill="none" xmlns="http://www.w3.org/2000/svg">
<path d="M14.3496 4.25049V6.67049" stroke="#BFBFBF" stroke-width="1.5" stroke-linecap="round" stroke-linejoin="round"/>
<path d="M14.3496 17.7603V19.7843" stroke="#BFBFBF" stroke-width="1.5" stroke-linecap="round" stroke-linejoin="round"/>
<path d="M14.3496 14.3249V9.50391" stroke="#BFBFBF" stroke-width="1.5" stroke-linecap="round" stroke-linejoin="round"/>
<path fill-rule="evenodd" clip-rule="evenodd" d="M19.2021 20C21.0242 20 22.5 18.5426 22.5 16.7431V14.1506C21.2943 14.1506 20.3233 13.1917 20.3233 12.001C20.3233 10.8104 21.2943 9.85039 22.5 9.85039L22.499 7.25686C22.499 5.45745 21.0221 4 19.2011 4H5.79892C3.97789 4 2.50104 5.45745 2.50104 7.25686L2.5 9.93485C3.70567 9.93485 4.67668 10.8104 4.67668 12.001C4.67668 13.1917 3.70567 14.1506 2.5 14.1506V16.7431C2.5 18.5426 3.9758 20 5.79787 20H19.2021Z" stroke="#BFBFBF" stroke-width="1.5" stroke-linecap="round" stroke-linejoin="round"/>
</svg>
